<svg width="53" height="47" viewBox="0 0 53 47" fill="none" xmlns="http://www.w3.org/2000/svg">
<path d="M52.2455 23.8086L48.4612 3.52734C48.3688 3.03298 48.1762 2.56276 47.8952 2.14559C47.6143 1.72843 47.251 1.37314 46.8277 1.10158C46.4044 0.830012 45.93 0.647914 45.4337 0.566481C44.9374 0.485047 44.4297 0.505999 43.9418 0.628048L43.8703 0.64879L31.7661 4.21875H21.2337L9.12945 0.660313L9.05801 0.639571C8.5701 0.517522 8.06239 0.49657 7.56609 0.578004C7.06979 0.659437 6.59539 0.841535 6.17207 1.1131C5.74875 1.38466 5.38546 1.73995 5.10453 2.15712C4.82361 2.57428 4.63099 3.0445 4.53852 3.53887L0.754221 23.8086C0.592393 24.6204 0.712516 25.4631 1.09472 26.1973C1.47692 26.9316 2.09831 27.5133 2.8561 27.8464C3.34148 28.0687 3.86868 28.185 4.40254 28.1875C5.04153 28.187 5.66869 28.0151 6.21863 27.6897V37.4063C6.21863 39.8512 7.18989 42.196 8.91874 43.9249C10.6476 45.6538 12.9924 46.625 15.4374 46.625H37.5624C40.0073 46.625 42.3522 45.6538 44.081 43.9249C45.8099 42.196 46.7811 39.8512 46.7811 37.4063V27.692C47.3304 28.017 47.9567 28.1889 48.5949 28.1898C49.1294 28.1883 49.6574 28.0728 50.1437 27.851C50.9024 27.5178 51.5244 26.9353 51.9067 26.2001C52.2889 25.4648 52.4085 24.6211 52.2455 23.8086ZM37.5624 42.9375H28.3436V40.0129L31.4918 36.867C31.8378 36.521 32.0322 36.0518 32.0322 35.5625C32.0322 35.0732 31.8378 34.604 31.4918 34.2581C31.1459 33.9121 30.6766 33.7177 30.1874 33.7177C29.6981 33.7177 29.2289 33.9121 28.8829 34.2581L26.4999 36.6434L24.1168 34.2581C23.7709 33.9121 23.3016 33.7177 22.8124 33.7177C22.3231 33.7177 21.8539 33.9121 21.5079 34.2581C21.162 34.604 20.9676 35.0732 20.9676 35.5625C20.9676 36.0518 21.162 36.521 21.5079 36.867L24.6561 40.0129V42.9375H15.4374C13.9704 42.9375 12.5635 42.3548 11.5262 41.3174C10.4889 40.2801 9.90613 38.8732 9.90613 37.4063V23.373L21.8744 7.90625H31.1254L43.0936 23.373V37.4063C43.0936 38.8732 42.5109 40.2801 41.4736 41.3174C40.4363 42.3548 39.0294 42.9375 37.5624 42.9375ZM20.9686 27.2656C20.9686 27.8126 20.8064 28.3473 20.5025 28.8021C20.1987 29.2569 19.7667 29.6114 19.2614 29.8207C18.756 30.0301 18.1999 30.0848 17.6635 29.9781C17.127 29.8714 16.6342 29.608 16.2474 29.2212C15.8606 28.8344 15.5972 28.3417 15.4905 27.8052C15.3838 27.2687 15.4386 26.7126 15.6479 26.2073C15.8572 25.7019 16.2117 25.27 16.6665 24.9661C17.1213 24.6622 17.656 24.5 18.203 24.5C18.9365 24.5 19.6399 24.7914 20.1586 25.31C20.6773 25.8287 20.9686 26.5321 20.9686 27.2656ZM37.5624 27.2656C37.5624 27.8126 37.4002 28.3473 37.0963 28.8021C36.7924 29.2569 36.3605 29.6114 35.8551 29.8207C35.3498 30.0301 34.7937 30.0848 34.2572 29.9781C33.7207 29.8714 33.2279 29.608 32.8412 29.2212C32.4544 28.8344 32.191 28.3417 32.0843 27.8052C31.9776 27.2687 32.0323 26.7126 32.2417 26.2073C32.451 25.7019 32.8055 25.27 33.2603 24.9661C33.7151 24.6622 34.2498 24.5 34.7968 24.5C35.5302 24.5 36.2337 24.7914 36.7523 25.31C37.271 25.8287 37.5624 26.5321 37.5624 27.2656Z" fill="#F5F5F5"/>
</svg>
